<?xml version="1.0" encoding="UTF-8"?>
<svg id="Layer_2" data-name="Layer 2" xmlns="http://www.w3.org/2000/svg" viewBox="0 0 41.8 37.87">
  <defs>
    <style>
      .cls-1 {
        fill: none;
        stroke: #050201;
        stroke-miterlimit: 10;
        stroke-width: 1.3px;
      }
    </style>
  </defs>
  <g id="Paths">
    <path class="cls-1" d="M13.06.65h27.44M11.76,22.96h22.21M13.77,9.84h24.77M38.54,3.28H11.1v17.02h27.44V3.28ZM16.98,35.92h12.41v-5.22H.65v5.22h9.8M12.41,1.3v1.98M41.15,1.3v18.29M33.31,7.84v2.47M35.9,7.84v2.47M38.54,20.32v1.98M13.77,3.28v16.6M30.7,9.84v-2.6h-13.14v2.6M13.06,25.57h13.06M30.05,25.57h5.23M39.86,26.22v-6.63M3.92,33.33h2.61M23.51,33.33h2.61M11.76,34.62h5.23M10.45,37.22h7.84M18.96,35.5v-2.18h-1.98M1.96,30.14v-1.31M5.88,30.14v-1.31M9.8,30.14v-1.31M9.8,35.37v-1.31M11.1,34.06v-1.31M21.56,30.14v-1.31M26.79,30.14v-1.31M30.7,30.14v-1.31M30.7,35.37v-1.31M32.01,34.06v-1.31M33.31,32.76v-1.31M34.62,31.45v-1.31M35.93,30.14v-1.31M37.23,28.84v-1.31M38.54,27.53v-1.31M32.01,28.84v-1.31M33.31,27.53v-1.31M35.93,24.92v-1.31M37.23,23.61v-1.31M28.09,28.84v-1.31M29.39,27.55v-1.31M32.01,24.93v-1.31M22.86,28.84v-1.31M24.17,27.54v-1.31M11.1,28.84v-1.31M12.4,27.54v-1.31M7.18,28.84v-1.31M8.49,27.53v-1.31M9.8,26.22v-1.31M11.1,24.92v-1.31M3.27,28.84v-1.31M4.57,27.54v-1.31M5.87,26.24v-1.31M7.17,24.93v-1.31M8.48,23.63v-1.31M9.78,22.33v-1.31"/>
  </g>
</svg>