<svg xmlns="http://www.w3.org/2000/svg" viewBox="0 0 357.42 169.05"><defs><style>.cls-1{fill:#242424;}</style></defs><g id="Layer_2" data-name="Layer 2"><g id="Art"><path class="cls-1" d="M0,0V169.05H357.42V0ZM350.73,81.18H147.29V6.7H350.73ZM6.7,6.7H140.6V162.35H6.7ZM147.29,162.35V87.87H350.73v74.48Z"/><polygon class="cls-1" points="182.22 58.01 182.22 49.12 184.55 46.59 191.75 58.01 199.37 58.01 189.19 41.52 199.65 29.64 192.55 29.64 182.22 41.04 182.22 29.64 175.74 29.64 175.74 58.01 182.22 58.01"/><polygon class="cls-1" points="211.48 58.01 218.03 58.01 218.03 47.31 227.28 29.64 220.6 29.64 214.83 41.35 208.82 29.64 201.64 29.64 211.48 47.4 211.48 58.01"/><path class="cls-1" d="M243.3,58.47c8.8,0,13.65-5.35,13.65-15.07,0-8.93-4.87-14.26-13-14.26-8.53,0-13.84,5.67-13.84,14.8C230.07,53.31,234.77,58.47,243.3,58.47Zm.5-23.73c4.28,0,6.44,3,6.44,9s-2.25,9.13-6.71,9.13-6.75-3-6.75-9.05S239.21,34.74,243.8,34.74Z"/><polygon class="cls-1" points="270.91 49.12 273.24 46.59 280.44 58.01 288.06 58.01 277.88 41.52 288.34 29.64 281.24 29.64 270.91 41.04 270.91 29.64 264.43 29.64 264.43 58.01 270.91 58.01 270.91 49.12"/><path class="cls-1" d="M303.69,58.47c8.8,0,13.65-5.35,13.65-15.07,0-8.93-4.87-14.26-13-14.26-8.54,0-13.84,5.67-13.84,14.8C290.47,53.31,295.16,58.47,303.69,58.47Zm.5-23.73c4.28,0,6.45,3,6.45,9s-2.26,9.13-6.72,9.13-6.75-3-6.75-9.05S299.6,34.74,304.19,34.74Z"/><polygon class="cls-1" points="182.25 128.1 193.26 128.1 193.26 122.66 182.25 122.66 182.25 116.75 193.95 116.75 193.95 111.2 175.74 111.2 175.74 139.57 194.64 139.57 194.64 133.98 182.25 133.98 182.25 128.1"/><polygon class="cls-1" points="219.49 129.96 209.47 111.2 201.93 111.2 201.93 139.57 207.94 139.57 207.94 120.86 218.16 139.57 225.47 139.57 225.47 111.2 219.49 111.2 219.49 129.96"/><path class="cls-1" d="M245.18,129.45h5.06v.69c0,2.75-2.1,4.53-5.37,4.53-4.64,0-6.71-2.89-6.71-9.36,0-4.17,1.2-9.13,6.9-9.13,3.23,0,4.9,1.62,5.26,5.09l0,.31,6.12-.6,0-.3c-.47-6.53-4.36-10-11.27-10-8.62,0-13.76,5.66-13.76,15.14,0,9.15,4.28,14.19,12.07,14.19,3.43,0,6.38-1.28,7.79-3.32l.55,2.86h4.85V124.51h-11.5Z"/><polygon class="cls-1" points="103.81 43.65 99.07 38.92 61.73 76.26 61.73 38.83 55.04 38.83 55.04 81.14 34.11 81.14 34.11 87.84 55.04 87.84 55.04 130.15 61.73 130.15 61.73 92.42 99.53 130.22 104.27 125.49 66.62 87.84 106.97 87.84 106.97 81.14 66.31 81.14 103.81 43.65"/></g></g></svg>